<?xml version="1.0" encoding="UTF-8" standalone="no"?>
<svg
   width="191"
   height="250"
   viewBox="0 0 191 250"
   fill="none"
   version="1.1"
   id="svg8"
   sodipodi:docname="logo 2.svg"
   inkscape:version="1.4.2 (f4327f4, 2025-05-13)"
   xmlns:inkscape="http://www.inkscape.org/namespaces/inkscape"
   xmlns:sodipodi="http://sodipodi.sourceforge.net/DTD/sodipodi-0.dtd"
   xmlns="http://www.w3.org/2000/svg"
   xmlns:svg="http://www.w3.org/2000/svg">
  <defs
     id="defs8" />
  <sodipodi:namedview
     id="namedview8"
     pagecolor="#ffffff"
     bordercolor="#000000"
     borderopacity="0.25"
     inkscape:showpageshadow="2"
     inkscape:pageopacity="0.0"
     inkscape:pagecheckerboard="0"
     inkscape:deskcolor="#d1d1d1"
     inkscape:zoom="0.79906543"
     inkscape:cx="368.55555"
     inkscape:cy="253.42105"
     inkscape:window-width="1360"
     inkscape:window-height="715"
     inkscape:window-x="-8"
     inkscape:window-y="-8"
     inkscape:window-maximized="1"
     inkscape:current-layer="svg8" />
  <path
     d="m 88.154506,44.092292 h 5 l 0.5,-0.0176 0.499,-0.0186 0.001,0.0362 h 15.000004 z m 84.075004,200.381098 2.891,0.18 0.012,-0.198 z m 1.905,-1.012 -139.999704,0.891 -9.5508,0.061 137.103504,-0.873 0.582,-9.366 z m -154.939204,-8.377 0.0557,8.684 6.8838,-6.964 v -1.72 z m 154.939204,8.377 -11.445,0.073 12.506,-0.08 -2.966,-3.65 v -6.694 z m -155.613004,-9.372 12.4346,-0.079 -11.7051,9.758 -7.2995,-92.809 -4.8355998,-87.1552 -1.2868,-19.211898 z m 13.4375,-0.086 130.373504,-0.83 11.73,-188.581098 h -43.085 c -3.22,7.285998 -6.538,12.260998 -10.969,15.917898 -4.488,3.7047 -10.071,6.0222 -17.725,8.0652 l -0.003,-0.01 -0.555,15.527 h 54.429 v 1 l 0.461,0.194 -27.255,64.518 24.617,20.907 -0.126,0.147 0.251,-0.083 4.957,14.873 1.927,2.889 -0.832,0.555 H 88.215506 l 10.457,28.802 12.482004,-28.802 0.459,0.199 0.459,0.198 -13.000004,30 -0.459,-0.198 -0.459,-0.199 -1,-2 -10,-28 h -50.9992 l -0.0215,0.023 -0.7402,-0.672 2.7607,-3.045 v -0.306 h 0.4541 l 4.5459,-10 0.9102,0.414 7.2558,-19.043 9.3194,-2.371 15.9868,-7 3.094,-0.547 51.000004,4.414 27.101,34.133 -11.977,-10.008 -16.653,-24.112 v 0.047 c -2.927,0.241 -5.201,0.11 -7.4,-0.395 -2.035,-0.467 -2.975,0.599 -5.298,-0.476 l -5.343,35.944 -1.506,-1.927 -0.494,-0.073 -5.662,-40.201 c -1.618,-0.048 -3.508004,0.058 -5.141004,0.159 l 0.666,2.042 h 0.137 v 1 h -6.123 l -4.886,37.131 -0.991,-0.131 -3.916,-37.198 -0.084,0.198 4,38 c -0.425,-0.182 -5.023,-37.874 -5.406,-38 h -5.122 c -1.921,0.646 -4.169,1.952 -7.685,3.867 -3.759,2.047 -6.8409,2.842 -9.6485,3.43 -2.8152,0.589 -5.2818,0.963 -7.9336,2.159 l -0.0391,-0.085 -7.2314,18.985 -0.4678,-0.178 -0.4668,-0.178 8,-21 0.4668,0.178 0.4678,0.178 -0.3213,0.842 c 2.4765,-0.986 4.8401,-1.361 7.3203,-1.881 2.7595,-0.578 5.7366,-1.346 9.3756,-3.328 3.358,-1.829 5.685,-3.179 7.691,-3.884 v -0.105 l 8.626,-27.606 c -8.295,-1.058 -13.258,-2.071 -21.9387,-5.487 l -0.1406,-0.056 -0.0859,-0.124 c -1.6999,-2.44 -2.8607,-4.437 -3.2686,-6.547 -0.412,-2.132 -0.0462,-4.313 1.1543,-7.105 l 0.041,-0.096 0.0762,-0.07 c 6.1493,-5.792 10.1343,-8.911 19.7303,-13.758 l 0.106,-0.053 h 6.521 c 0.017,-0.033 15.579004,1.256 14.676004,1 l -2.979004,131.704 -29.594,-68.186 -0.462,0.192 -0.462,0.192 -27.0002,-65 v -1 h 54.4292 l -8.429,0.745 c 1.552,-2.927 3.486,-4.543 7.208,-6.916 l -0.338,-9.446 c -9.331,-1.858 -15.611,-4.2102 -20.198,-7.9271 -4.612,-3.7367 -7.458,-8.8048 -10.0228,-15.955998 h -44.5332 z m 131.375504,-0.836 12.505,-0.08 -12.505,1.921 11.73,-190.416098 z m -124.270004,-46.661 -0.4004,-0.183 -1.6026,1.769 h 122.426004 -1.666 -120.760004 z m 55.339,-107.423 c -3.557,2.306 5.572,-4.086 4.151,-1.162 -0.757,3.504 -11.385,15.516 -10.915,18.742 0.236,1.619 0.546,3.008 0.846,3.984 0.15,0.49 0.293,0.86 0.415,1.099 0.037,0.072 0.068,0.124 0.093,0.161 l 0.074,0.003 0.143,0.167 0.002,0.002 0.03,0.034 c 0.021,0.025 0.052,0.061 0.093,0.109 0.083,0.094 0.204,0.234 0.361,0.411 0.313,0.355 0.767,0.864 1.327,1.477 1.12,1.228 2.663,2.874 4.353,4.546 1.531,1.514 3.178,3.041 4.738004,4.3 l 0.03,-0.004 0.004,0.032 c 0.289,0.233 0.574,0.457 0.855,0.669 l -0.3,0.4 -0.302,0.399 c -0.018,-0.013 -0.034,-0.027 -0.052,-0.04 l 9.323,66.191 10.482,-70.511 0.494,0.073 0.495,0.074 -5.505,37.027 c 2.425,1.131 4.371,1.922 6.381,2.383 1.838,0.423 3.746,0.571 6.135,0.438 v -0.004 l -29.485004,67.811 3.018004,-132.802 -0.537,15.036 -0.499,-0.019 -0.5,-0.017 h -4.598004 c 1.902,3.239 3.82,5.627 7.033004,9 h 18.565 v 1 h -18.482 l -0.265,0.256 c -0.083,-0.086 -0.163,-0.172 -0.244,-0.256 h -0.009 v -0.009 c -4.369004,-4.557 -6.455004,-7.347 -9.122004,-12.516 l -0.041,-0.079 -0.011,-0.088 c -0.377,-3.03 -0.473,-5.324 -0.225,-7.461 0.246,-2.114 0.826,-4.048 1.77,-6.372 v -1.085 z m -7.045,35.474 c -0.114,0.042 -0.227,0.08 -0.339,0.114 l -9.748,31.195 c 1.539,-0.365 2.962,-0.301 4.634,0.226 h 1.249 v 0.459 c 0.016,0.007 0.033,0.013 0.05,0.02 l -0.05,-0.479 0.497,-0.053 0.497,-0.052 3.563,33.861 4.443,-33.756 h 5.81 l -10.276,-31.521 c -0.109,-0.004 -0.219,-0.008 -0.33,-0.014 z m 7.758,-4.756 c -1.232,1.924 -2.308,3.166 -3.49,3.898 -0.904,0.561 -1.839,0.806 -2.887,0.868 l 9.292,28.5 c 1.622,-0.101 3.596004,-0.219 5.319004,-0.179 l -4.138004,-29.376 c -1.362,-1.119 -2.77,-2.416 -4.096,-3.711 z m -14.422,-23.611 c -9.387,4.749 -13.295,7.801 -19.3146,13.466 -1.1208,2.637 -1.4074,4.582 -1.0508,6.426 0.3588,1.855 1.3795,3.672 3.0215,6.041 7.8479,3.079 12.6019,4.162 19.7359,5.133 -4.271,-2.305 -7.094,-3.996 -11.063,-6.849 l -0.039,-0.029 -0.034,-0.035 c -1.935,-2.068 -2.998,-3.772 -3.219,-5.555 -0.221,-1.786 0.416,-3.541 1.599,-5.667 l 0.006,-0.011 0.007,-0.011 c 3.506,-5.582 7.063,-8.509 13.718,-12.909 z m 5.313,-0.082 c -7.534,4.91 -11.185,7.745 -14.806,13.505 -1.156,2.081 -1.657,3.597 -1.477,5.052 0.18,1.451 1.052,2.951 2.923,4.958 4.376,3.142 7.338,4.856 12.523,7.614 l 0.74,-2.368 c -0.371,0.013 -0.743,-0.03 -1.131,-0.143 -0.888,-0.26 -1.812,-0.862 -2.973,-1.804 l -0.061,-0.051 -0.043,-0.067 c -0.864,-1.341 -1.363,-2.448 -1.595,-3.613 -0.231,-1.159 -0.19,-2.338 -0.031,-3.802 l 0.02,-0.183 0.133,-0.127 c 1.162,-1.1 2.235,-1.845 3.575,-2.338 1.131,-0.416 2.43,-0.643 4.095,-0.775 -0.124,-0.282 -0.248,-0.63 -0.37,-1.026 -0.318,-1.036 -0.638,-2.476 -0.879,-4.132 -0.482,-3.303 -0.663,-7.535 0.141,-11.211 z m 2.609,16.81 c -1.951,0.121 -3.326,0.342 -4.467,0.762 -1.128,0.415 -2.057,1.036 -3.098,2.002 -0.138,1.341 -0.155,2.351 0.036,3.314 0.196,0.984 0.618,1.957 1.413,3.2 1.111,0.896 1.888,1.374 2.559,1.57 0.65,0.189 1.248,0.129 2.044,-0.179 l 0.103,-0.04 0.11,0.007 c 1.594,0.105 2.726,-0.049 3.783,-0.704 1.025,-0.636 2.032,-1.778 3.289,-3.77 -1.593,-1.588 -3.039,-3.129 -4.103,-4.296 -0.564,-0.618 -1.021,-1.13 -1.338,-1.489 -0.138,-0.156 -0.25,-0.283 -0.331,-0.377 z m 22.013004,-11.13 c 1.73,0.429 3.539,0.747 4.955,1.238 1.422,0.494 2.651,1.225 3.13,2.608 0.741,1.862 1.125,3.268 1.117,4.521 -0.01,1.277 -0.421,2.343 -1.156,3.526 l -0.025,0.04 -0.032,0.035 c -0.828,0.893 -1.569,1.592 -2.539,2.243 -0.966,0.648 -2.143,1.236 -3.831,1.932 l -0.095,0.039 -0.103,-10e-4 c -1.639,-0.023 -3.009,-0.264 -4.496,-0.911 -1.472,-0.641 -3.04,-1.674 -5.092,-3.244 l -0.195,-0.151 v -8.029 l 0.121,-0.141 c 0.786,-0.912 1.557,-1.619 2.775,-2.208 1.198,-0.58 2.808,-1.036 5.252,-1.503 l 0.108,-0.02 z m -0.131,0.997 c -2.361,0.455 -3.838,0.887 -4.9,1.401 -0.999,0.483 -1.649,1.049 -2.331,1.822 v 7.159 c 1.935,1.471 3.372,2.401 4.687,2.974 1.313,0.572 2.522,0.794 4.008,0.824 1.608,-0.666 2.69,-1.214 3.56,-1.797 0.87,-0.584 1.544,-1.213 2.329,-2.058 0.657,-1.068 0.973,-1.943 0.98,-2.962 0.01,-1.054 -0.316,-2.312 -1.045,-4.144 v -0.012 -0.012 c -0.32,-0.947 -1.171,-1.541 -2.521,-2.009 -1.336,-0.464 -2.963,-0.745 -4.758,-1.186 z m -15.382004,-7.542 c -0.454,1.369 -1.213,3.481 -1.367,4.812 -0.233,2.004 -0.151,4.184 0.212,7.134 0.398,0.769 0.784,1.483 1.165,2.158 z m 0.223,-7.941 0.186,-0.116 v 5.288 l 0.594,16.618 -1.929,-54.000098 z M 122.82651,44.279792 c -2.307,4.642298 0.072,12.774798 -3.091,15.146398 -3.293,3.5117 -12.491,7.0582 -17.101,8.3782 l -0.173,-4.3269 0.193,-3.8852 -0.048,-0.1661 0.013,7.9872 c 7.446,-2.01 12.846,-4.4626 17.116,-7.9872 4.184,-3.4538 -3.101,-1.622 -3.656,-5.9961 z m -57.958004,0.3125 c 2.505,6.895398 26.851,12.443398 31.186,15.955998 -9.145,-1.8386 4.363004,3.5346 0,0 l 2.035,1.2559 -7,1.2753 2.565,-3.9872 -0.09,0.4921 c -4.048,-0.7384 -7.256,-1.9803 -10.275,-4.3427 -2.962,-2.3168 -10.371,6.0265 -13.565,1.0677 z m 110.258004,-1 h 12.501 -16.993 l 18.02,-8.999999 -6.52,6.711899 z m -51.975,-7.999999 h 51.471 l 3.012,9.211899 z m -117.4972038,2.0097 13.0898998,-0.876 0.4599,6.866299 h 54.4504 -67.8927998 z m 0,1.001999 v 3.3799 l 0.1074,1.6084 H 18.202206 l -0.3887,-5.801799 z m 93.9791998,-20.186499 -10e-4,9e-4 0.003,-0.002 10e-4,-10e-4 z m 10.821004,27.075097 -7.335,-0.400298 -0.5,13.989198 c 4.512,-1.2982 8.131,-2.7768 11.187,-5.0683 3.051,-2.288 5.572,-5.4106 7.848,-10.040098 v -9.380799 h 53.03 v -0.0303 l 0.483,0.0303 h 13.485 l 0.48,0.8691 -0.48,7.736299 v 1.3946 h -0.087 l -11.908,191.427098 0.05,7.925 v 0.5 l -0.5,0.004 h -0.079 l -0.077,1.266 -14.449,-0.899 0.017,-0.274 -142.863804,0.909 -0.5,0.004 -0.003,-0.5 -0.001,-0.118 -0.0175,0.002 L 4.8201062,44.592292 h -0.1719 v -2.5704 l -0.29,-4.332999 0.29,-0.0195 v -3.0771 H 74.648406 v 9.499999 l 0.421,-0.2696 c 3.235,5.051698 8.057,9.419798 10.932,11.668998 2.845,2.2255 3.769,2.3752 7.664,3.0937 l -0.481,-13.493098 h -6.036 V 29.092293 l 17.311004,-6.8692 4.104,5 2.932,-3.9472 c 0.694,-0.6309 -0.277,0.2375 -0.075,-0.4206 0.115,-0.3722 0.172,3.8249 0.2,3.5905 0.015,-0.1168 0.022,-0.2092 0.025,-0.2705 0,-0.0305 0,-0.0533 0,-0.0674 v -0.1914 l 0.109,-0.1367 v -0.003 c 0,-0.003 0.01,-0.009 0.013,-0.0166 0.012,-0.0153 0.03,-0.0396 0.055,-0.0722 0.048,-0.0653 0.119,-0.1647 0.207,-0.2959 0.176,-0.2631 -5.494,2.3127 -3.472,1.831 0.46,-0.8767 -10.694004,6.7777 -10.367004,5.3115 -1.136,0.1778 13.808004,-11.376 12.977004,-10.9277 -1.003,0.5412 -1.951,1.3031 -3.201,2.3662 l -0.711,-0.6972 4.437,-5.4239 1.961,-6.2754 c -0.537,0.4222 -1.458,7.7153 -2.069,7.9854 -1.122,0.4961 -8.732,-1.126 -3.996,-6.4727 l -0.141,-0.0156 -0.1,-0.0771 c -0.013,-0.002 -0.042,-0.004 -0.097,0.005 -0.118,0.0185 4.096,6.295 3.868,6.4121 -0.453,0.2329 -1.022,0.6381 -1.645,1.1504 -1.231,1.0126 -6.978,-3.8478 -7.941,-2.8291 -0.152,0.2077 -0.273,0.3705 -0.357,0.4825 -0.044,0.0583 -0.078,0.1035 -0.102,0.1337 -0.011,0.0152 -0.02,0.0274 -0.026,0.0352 -0.003,0.004 -0.005,0.007 -0.007,0.009 l -0.003,0.003 -0.015,0.0196 -0.017,0.0185 c -0.323,0.3413 -0.54,0.5619 -0.662,0.6768 -0.031,0.0286 -0.062,0.0575 -0.091,0.081 -0.013,0.0111 -0.035,0.0273 -0.06,0.044 -0.013,0.008 -0.034,0.0226 -0.062,0.0361 -0.019,0.009 -0.083,0.0393 -0.170004,0.0488 -0.09,0.01 -0.328,0.002 -0.475,-0.2246 -0.113,-0.1733 -0.078,-0.3452 -0.072,-0.375 0.019,-0.0903 0.059,-0.1568 0.063,-0.1631 0.023,-0.0399 0.051,-0.0775 0.069,-0.1015 0.15,-0.1985 0.607004,-0.7187 1.216004,-1.3643 1.118,-1.5272 -13.304004,0.8162 -11.171004,-3.5205 l 7.577,-4.6536996 c -4.238,1.9407996 15.403004,11.5182996 14.322004,14.3558996 -1.101,2.8882 -24.004004,2.7521 -23.589004,7.7516 l -1.256,-1.8942 c -0.414,-4.9848 -0.47,-8.853 0.721,-11.9795 1.209,-3.1706 3.665,-5.5052 8.069,-7.5165996 l 0.033,-0.0147 0.035,-0.0107 13.055004,-3.8076 -0.461,0.998 c -1.178,2.5472 -2.593,4.9723996 -3.844,6.9403996 0.068,-0.0568 0.134,-0.1138 0.201,-0.1689 0.641,-0.5264 1.274,-0.9856 1.823,-1.2676 0.273,-0.1402 0.553,-0.2512 0.82,-0.2929 0.219,-0.0343 0.471,-0.0262 0.702,0.0908 1.77,0.1815 2.872,0.01 3.765,-0.3848 0.932,-0.4124 1.679,-1.08 2.753,-2.0057996 l 1.325,-1.1426 -3.022,9.6708996 -0.029,0.0918 -2.012,2.457 c 0.038,-0.0211 0.076,-0.0429 0.114,-0.0635 1.121,-0.6047 2.312,-0.9648 3.897,-1.1318 l 0.657,-0.0693 -0.111,0.6513 c -0.325,1.8953 -0.972,3.4451 -1.536,4.5215 -0.283,0.5387 -0.545,0.9608 -0.739,1.25 -0.093,0.1383 -0.171,0.246 -0.227,0.3223 0,0.077 -0.012,0.1774 -0.026,0.2959 -0.034,0.281 -0.102,0.6705 -0.238,1.1103 -0.27,0.8777 -0.817,1.9829 -1.927,2.8154 z"
     fill="#C0C0C0"
     fill-opacity="0.57"
     id="use1"
     style="fill:#000000" />
  <path
     style="fill:#000000;stroke-width:1.25146"
     d="M 18.768742,243.49254 C 18.306964,241.84506 6.0661925,47.735297 5.9589622,40.359649 L 5.8816365,35.040935 H 40.171812 74.461987 v 4.780586 c 0,3.679904 1.0374,5.992555 4.505725,10.044513 4.599316,5.373266 10.054278,8.952679 13.643728,8.952679 1.632143,0 1.934437,-1.221121 1.626475,-6.570176 -0.321139,-5.5779 -0.77574,-6.62693 -3.010061,-6.945969 C 88.818876,44.958589 88.526727,43.868816 87.777144,32.430706 86.640467,15.085827 89.18397,11.069481 103.17698,8.1134272 l 4.31148,-0.9108099 -2.23491,3.4109067 -2.23491,3.410907 5.30213,-0.895791 c 5.67969,-0.959576 5.80041,-0.709831 2.98406,6.17342 -0.78875,1.927743 -0.56772,2.247208 1.10948,1.603605 2.46682,-0.94661 2.75194,0.734296 0.53013,3.125385 -2.17001,2.335348 -2.62433,4.224102 -3.17512,13.199944 -0.47224,7.695735 -0.53868,7.821637 -4.12757,7.821637 -3.61745,0 -3.6476,0.0611 -3.6476,7.391634 V 59.8359 l 4.69298,-1.431102 c 2.58114,-0.787106 7.08641,-3.816943 10.0117,-6.732971 4.69304,-4.678173 5.31871,-5.968222 5.31871,-10.966379 v -5.664513 h 33.16374 c 30.75112,0 33.16357,0.159325 33.16138,2.190059 -0.001,1.204532 -2.81603,46.96111 -6.25494,101.681286 -3.43892,54.72017 -6.25365,100.50999 -6.25495,101.75515 -0.001,1.24515 -0.51743,1.94558 -1.14694,1.55653 -0.62951,-0.38907 -1.33346,-0.17919 -1.56432,0.4664 -0.61973,1.733 -153.868629,2.52945 -154.352768,0.80218 z M 164.56725,229.1451 c 0,-2.68306 1.96127,-36.37279 4.35837,-74.86606 2.39711,-38.49327 4.65626,-79.098045 5.02035,-90.232822 l 0.66197,-20.245049 H 152.81178 131.0156 l -3.14538,5.318713 c -4.3513,7.357845 -11.98542,13.984791 -19.18569,16.6545 -3.33556,1.236756 -6.14989,2.289519 -6.25408,2.339472 -0.10419,0.04995 -0.59099,3.881193 -1.08178,8.513867 l -0.89235,8.423044 27.56317,0.33719 27.56318,0.33719 -9.72921,23.152045 c -5.35105,12.73363 -11.4589,27.20834 -13.57298,32.16603 l -3.84379,9.01398 12.12084,10.20442 c 11.37726,9.57841 12.3313,10.75282 15.55181,19.14391 1.88705,4.91672 3.43573,9.08029 3.44152,9.25236 0.006,0.17208 -10.83025,0.31717 -24.0801,0.32244 l -24.09064,0.01 -6.16505,14.41193 c -3.39077,7.92656 -6.537808,13.9762 -6.993407,13.44364 -0.455601,-0.53256 -2.069423,-4.46983 -3.58627,-8.74949 -1.516848,-4.27966 -3.886956,-10.33361 -5.266907,-13.45322 l -2.509002,-5.67201 H 62.545511 38.23154 l 1.191044,-3.13269 c 0.655074,-1.72297 2.254098,-5.52429 3.553387,-8.44736 1.299288,-2.92308 3.671995,-9.03535 5.272682,-13.58281 2.259544,-6.41926 3.382956,-8.14454 5.023866,-7.71544 3.200923,0.83707 16.516854,-5.61685 15.380952,-7.45478 -0.513797,-0.83134 -6.677293,-15.32676 -13.69666,-32.21203 L 42.194329,85.725145 64.860432,85.382985 c 22.63834,-0.341741 22.670365,-0.346243 26.145525,-3.675657 2.726885,-2.612523 3.479422,-4.473872 3.479422,-8.606118 V 67.828591 L 88.305577,66.346079 C 78.486836,63.990598 71.752078,58.978143 67.51737,50.874108 l -3.692809,-7.066992 -22.760501,-0.003 -22.760501,-0.003 0.534814,4.067251 c 0.294149,2.236989 3.12504,44.333041 6.29087,93.546783 3.165829,49.21375 5.969449,90.18348 6.230268,91.04386 0.371604,1.22583 14.83479,1.56433 66.840977,1.56433 H 164.56725 Z M 101.63905,94.172514 c -0.28674,-1.892837 -0.52134,-0.344153 -0.52134,3.44152 0,3.785676 0.2346,5.334356 0.52134,3.441516 0.28674,-1.892832 0.28674,-4.9902 0,-6.883036 z m -0.0415,-6.804825 c -0.3995,-0.998332 -0.69604,-0.70179 -0.75609,0.756092 -0.0543,1.319249 0.24144,2.058393 0.65729,1.642544 0.41585,-0.415851 0.46031,-1.495237 0.0988,-2.398636 z"
     id="path1" />
</svg>
