<svg width="186" height="246" viewBox="0 0 186 246" fill="none" xmlns="http://www.w3.org/2000/svg">
<path d="M106.039 0.947212C101.138 8.70226 96.6468 14.7469 96.0393 12.9472C101.234 7.75752 104.67 5.97315 112.039 5.44722" stroke="black"/>
<path d="M113.039 5.44722C111.046 8.15688 109.998 9.65686 109.539 11.9472C108.444 15.3955 107.657 16.8738 106.039 18.9472C108.508 16.7268 109.832 15.8879 112.039 15.4472L107.539 23.9472" stroke="black"/>
<path d="M104.539 0.947212C102.672 2.33524 77.3798 6.5883 84.0393 23.9472V35.4472H77.5393V39.9472H90.0393V53.4472C77.8859 49.9085 73.8071 45.0199 72.0393 30.4472H0.539337L16.5393 241.447C61.4309 232.959 88.1055 232.687 96.0393 244.447C108.886 235.491 123.905 232.66 170.539 239.947L185.039 30.4472C162.741 30.4472 118.124 30.2472 118.039 29.4472C119.569 42.6897 115.427 47.8008 100.539 53.4472V39.9472H114.039V35.4472H106.539V24.4472" stroke="black"/>
<path d="M91.0393 62.4472C73.4537 61.6641 68.9632 53.3825 60.0393 39.9472H11.0393L24.0055 231.447C65.1693 225.19 84.4376 223.676 94.0055 233.947C110.98 223.908 126.609 225.365 160.039 231.447L171.039 39.9472H127.539C120.797 55.1168 115.112 60.424 100.539 62.4472" stroke="black"/>
<path d="M89.0393 140.447C92.6585 145.836 94.2135 148.911 96.5393 154.447C97.1736 150.05 97.9736 147.764 100.039 143.947M124.539 143.947L147.539 165.947M147.539 165.947L133.539 165.447C119.322 160.583 113.766 157.3 107.539 158.947M147.539 165.947L154.039 180.447M102.039 159.947C97.9998 161.917 97.0603 163.618 96.0393 166.947C95.1923 163.179 94.2753 161.103 92.0393 157.447C90.2224 155.563 88.8821 155.182 86.0393 155.447M79.5393 156.447C65.855 161.123 59.8069 166.734 49.0393 168.447L37.5393 169.447L33.0393 181.447M33.0393 181.447L46.5393 148.447C51.9605 147.708 57.0393 145.947 59.5393 145.447C62.0393 144.947 62.8915 144.228 65.0393 143.447M33.0393 181.447L57.5393 177.947L89.0393 174.947C90.9977 172.87 93.153 171.791 95.0393 171.447C96.9256 171.104 100.626 174.96 100.539 175.447C109.223 175.647 112.539 175.796 123.039 177.447C133.539 179.098 140.927 179.298 154.039 180.447M33.0393 181.447L31.5393 183.447C45.4924 182.172 53.4512 181.504 68.0393 180.447C89.322 180.189 101.191 179.961 123.039 180.447C136.115 180.75 142.539 181.817 154.039 182.447V180.447" stroke="black"/>
<path d="M60.3055 204.383C60.3055 205.327 60.1214 206.139 59.7532 206.821C59.3893 207.502 58.8793 208.027 58.2234 208.395C57.5717 208.763 56.8142 208.947 55.951 208.947H52.6057V200.003H55.5638C57.0787 200.003 58.2467 200.384 59.0677 201.146C59.8929 201.903 60.3055 202.983 60.3055 204.383ZM59.0867 204.383C59.0867 203.275 58.782 202.43 58.1726 201.851C57.5675 201.267 56.6894 200.975 55.5384 200.975H53.8181V207.976H55.8113C56.4757 207.976 57.0512 207.83 57.5379 207.538C58.0288 207.246 58.4096 206.831 58.6805 206.294C58.9513 205.756 59.0867 205.12 59.0867 204.383ZM69.0462 207.957V208.947H62.0003V200.003H68.7859V200.994H63.2127V203.863H68.4051V204.84H63.2127V207.957H69.0462ZM81.2971 206.478C81.2971 207.303 80.9734 207.942 80.326 208.395C79.6827 208.848 78.775 209.074 77.6028 209.074C75.4235 209.074 74.1603 208.317 73.8133 206.802L74.9876 206.567C75.123 207.104 75.4108 207.5 75.8509 207.754C76.291 208.004 76.8898 208.128 77.6472 208.128C78.4301 208.128 79.0332 207.995 79.4563 207.728C79.8837 207.458 80.0974 207.062 80.0974 206.541C80.0974 206.249 80.0297 206.012 79.8943 205.831C79.7631 205.649 79.5769 205.498 79.3357 205.38C79.0945 205.261 78.8068 205.162 78.4724 205.081C78.1381 205.001 77.7679 204.914 77.3616 204.821C76.8919 204.715 76.4983 204.612 76.1809 204.51C75.8678 204.409 75.6096 204.303 75.4065 204.193C75.2034 204.079 75.0299 203.958 74.886 203.831C74.6744 203.636 74.5115 203.41 74.3972 203.152C74.2872 202.894 74.2322 202.597 74.2322 202.263C74.2322 201.497 74.5242 200.907 75.1082 200.492C75.6964 200.077 76.5364 199.87 77.6282 199.87C78.6438 199.87 79.4204 200.027 79.9578 200.34C80.4952 200.649 80.8719 201.178 81.0877 201.927L79.8943 202.136C79.7631 201.662 79.5135 201.319 79.1453 201.108C78.7771 200.892 78.2672 200.784 77.6155 200.784C76.9003 200.784 76.3544 200.903 75.9778 201.14C75.6012 201.377 75.4129 201.73 75.4129 202.2C75.4129 202.475 75.4848 202.703 75.6287 202.885C75.7768 203.063 75.9884 203.213 76.2635 203.336C76.5216 203.459 77.0696 203.613 77.9075 203.799C78.2503 203.88 78.5888 203.964 78.9231 204.053C79.2574 204.138 79.5727 204.246 79.8689 204.377C80.0424 204.449 80.2075 204.538 80.364 204.644C80.5249 204.745 80.6645 204.864 80.783 204.999C80.9438 205.177 81.0686 205.386 81.1575 205.627C81.2506 205.869 81.2971 206.152 81.2971 206.478ZM90.0061 207.957V208.947H82.9602V200.003H89.7459V200.994H84.1726V203.863H89.365V204.84H84.1726V207.957H90.0061ZM98.5501 202.695C98.5501 203.258 98.4252 203.746 98.1756 204.161C97.9259 204.576 97.5704 204.897 97.1092 205.126C96.6521 205.35 96.1062 205.462 95.4715 205.462H92.8435V208.947H91.6311V200.003H95.3953C96.3982 200.003 97.1748 200.238 97.7249 200.708C98.275 201.178 98.5501 201.84 98.5501 202.695ZM97.3313 202.707C97.3313 201.552 96.6373 200.975 95.2493 200.975H92.8435V204.504H95.3001C95.9772 204.504 96.485 204.356 96.8235 204.06C97.1621 203.759 97.3313 203.308 97.3313 202.707ZM103.806 200.994V208.947H102.6V200.994H99.5276V200.003H106.878V200.994H103.806ZM109.595 200.003V208.947H108.383V200.003H109.595ZM118.913 207.957V208.947H111.867V200.003H118.653V200.994H113.08V203.863H118.272V204.84H113.08V207.957H118.913ZM121.617 202.98V208.947H120.538V200.003H122.132L124.512 206.205C124.597 206.455 124.677 206.723 124.753 207.011C124.834 207.295 124.887 207.5 124.912 207.627C124.937 207.513 124.98 207.356 125.039 207.157C125.098 206.954 125.157 206.759 125.217 206.573C125.276 206.387 125.318 206.264 125.344 206.205L127.679 200.003H129.235V208.947H128.143V202.98C128.143 202.65 128.147 202.327 128.156 202.009C128.168 201.692 128.183 201.381 128.2 201.076C128.094 201.453 127.995 201.791 127.902 202.092C127.813 202.388 127.726 202.642 127.641 202.853L125.331 208.947H124.48L122.138 202.853L121.573 201.076C121.581 201.394 121.59 201.711 121.598 202.028C121.611 202.346 121.617 202.663 121.617 202.98ZM138.286 206.427C138.286 207.223 137.997 207.843 137.417 208.287C136.837 208.727 136.031 208.947 134.998 208.947H131.367V200.003H134.617C135.667 200.003 136.454 200.185 136.979 200.549C137.504 200.909 137.766 201.451 137.766 202.174C137.766 202.703 137.618 203.148 137.322 203.507C137.025 203.867 136.606 204.108 136.065 204.231C136.776 204.316 137.324 204.555 137.709 204.948C138.094 205.338 138.286 205.831 138.286 206.427ZM136.547 202.32C136.547 201.838 136.382 201.493 136.052 201.286C135.722 201.078 135.244 200.975 134.617 200.975H132.58V203.806H134.617C135.265 203.806 135.747 203.685 136.065 203.444C136.386 203.198 136.547 202.824 136.547 202.32ZM137.061 206.332C137.061 205.278 136.321 204.751 134.84 204.751H132.58V207.976H134.935C135.675 207.976 136.215 207.838 136.553 207.563C136.892 207.288 137.061 206.878 137.061 206.332ZM141.251 205.234V208.947H140.038V200.003H144.247C145.254 200.003 146.031 200.23 146.576 200.683C147.127 201.131 147.402 201.757 147.402 202.561C147.402 203.226 147.207 203.784 146.818 204.237C146.433 204.69 145.899 204.976 145.218 205.094L147.757 208.947H146.361L144.037 205.234H141.251ZM146.183 202.574C146.183 202.054 146.005 201.658 145.65 201.387C145.298 201.112 144.791 200.975 144.126 200.975H141.251V204.275H144.177C144.816 204.275 145.309 204.127 145.656 203.831C146.007 203.531 146.183 203.112 146.183 202.574ZM156.479 207.957V208.947H149.433V200.003H156.219V200.994H150.645V203.863H155.838V204.84H150.645V207.957H156.479Z" fill="black"/>
<path d="M43.1346 207.976V208.947H37.5296V207.976H39.8084V201.095L37.7898 202.536V201.457L39.9036 200.003H40.9573V207.976H43.1346ZM50.3518 200.93C49.8948 201.628 49.5034 202.25 49.1775 202.796C48.8559 203.342 48.602 203.814 48.4158 204.212C48.0392 205.003 47.7556 205.784 47.5652 206.554C47.379 207.324 47.2859 208.122 47.2859 208.947H46.0926C46.0926 208.355 46.1539 207.754 46.2766 207.144C46.3994 206.531 46.5961 205.888 46.867 205.215C47.1209 204.584 47.4425 203.92 47.8318 203.222C48.2254 202.519 48.6972 201.77 49.2473 200.975H44.4422V200.003H50.3518V200.93Z" fill="black"/>
<g filter="url(#filter0_d_5_104)">
<path d="M37.3987 72.9438C38.844 72.9438 39.9305 72.2285 40.658 70.7978L41.8006 71.3691C41.3758 72.2578 40.7776 72.934 40.0061 73.3979C39.2395 73.8618 38.3484 74.0937 37.3328 74.0937C36.2879 74.0937 35.3894 73.8764 34.6375 73.4418C33.8855 73.0073 33.3069 72.3896 32.9016 71.5888C32.5013 70.7831 32.3011 69.8334 32.3011 68.7397C32.3011 67.6411 32.5013 66.6987 32.9016 65.9125C33.302 65.1264 33.8782 64.5234 34.6302 64.1035C35.3821 63.6835 36.2805 63.4736 37.3255 63.4736C38.4241 63.4736 39.3421 63.6884 40.0794 64.1181C40.8167 64.5478 41.3587 65.185 41.7054 66.0297L40.3797 66.4692C40.1404 65.8686 39.7547 65.4096 39.2224 65.0922C38.6951 64.7748 38.0677 64.6162 37.3401 64.6162C36.1975 64.6162 35.3089 64.9848 34.6741 65.7221C34.0393 66.4545 33.722 67.4604 33.722 68.7397C33.722 69.5795 33.8709 70.3168 34.1687 70.9516C34.4715 71.5815 34.8963 72.0722 35.4431 72.4238C35.9949 72.7705 36.6468 72.9438 37.3987 72.9438ZM53.3289 68.7397C53.3289 69.8432 53.1189 70.7954 52.699 71.5961C52.284 72.3969 51.6931 73.0146 50.9265 73.4492C50.1599 73.8789 49.2517 74.0937 48.2019 74.0937C47.1472 74.0937 46.2366 73.8789 45.47 73.4492C44.7083 73.0195 44.1199 72.4042 43.7049 71.6035C43.2947 70.8027 43.0896 69.8481 43.0896 68.7397C43.0896 67.6362 43.2923 66.6938 43.6975 65.9125C44.1077 65.1264 44.6936 64.5234 45.4554 64.1035C46.222 63.6835 47.1424 63.4736 48.2166 63.4736C49.2713 63.4736 50.1795 63.6811 50.9412 64.0961C51.7078 64.5112 52.2962 65.1118 52.7063 65.8979C53.1214 66.6791 53.3289 67.6264 53.3289 68.7397ZM51.9007 68.7397C51.9007 67.4555 51.5784 66.4472 50.9339 65.7148C50.2942 64.9824 49.3885 64.6162 48.2166 64.6162C47.0349 64.6162 46.1219 64.9775 45.4773 65.7001C44.8328 66.4228 44.5105 67.436 44.5105 68.7397C44.5105 69.5991 44.657 70.3461 44.95 70.9809C45.243 71.6108 45.6653 72.0991 46.2171 72.4457C46.7688 72.7875 47.4305 72.9584 48.2019 72.9584C49.3933 72.9584 50.3064 72.5922 50.9412 71.8598C51.5808 71.1225 51.9007 70.0825 51.9007 68.7397ZM61.8982 72.8046V73.9472H55.2845V63.6274H56.6834V72.8046H61.8982ZM71.7639 72.8046V73.9472H63.6341V63.6274H71.4637V64.77H65.033V68.0805H71.0242V69.2084H65.033V72.8046H71.7639ZM78.3631 72.9584C79.0369 72.9584 79.6643 72.8559 80.2454 72.6508C80.8313 72.4457 81.305 72.1674 81.6663 71.8159V69.9555H78.5828V68.7836H82.9554V72.3432C82.4085 72.8998 81.7371 73.332 80.9412 73.6396C80.1502 73.9423 79.2908 74.0937 78.3631 74.0937C77.2888 74.0937 76.3636 73.8764 75.5872 73.4418C74.8108 73.0073 74.2127 72.3896 73.7928 71.5888C73.3728 70.7831 73.1629 69.8334 73.1629 68.7397C73.1629 67.0649 73.6121 65.7685 74.5105 64.8505C75.409 63.9326 76.6712 63.4736 78.2971 63.4736C79.4397 63.4736 80.3675 63.6665 81.0804 64.0522C81.7932 64.4379 82.3426 65.0556 82.7283 65.9052L81.3953 66.3007C81.1023 65.7148 80.6971 65.2875 80.1795 65.019C79.6668 64.7504 79.0271 64.6162 78.2605 64.6162C77.0691 64.6162 76.1585 64.9775 75.5286 65.7001C74.8987 66.4179 74.5838 67.4311 74.5838 68.7397C74.5838 70.0434 74.9182 71.0737 75.5872 71.8305C76.2561 72.5825 77.1814 72.9584 78.3631 72.9584ZM86.8665 63.6274V73.9472H85.4676V63.6274H86.8665ZM99.2078 68.7397C99.2078 69.8432 98.9978 70.7954 98.5779 71.5961C98.1629 72.3969 97.5721 73.0146 96.8055 73.4492C96.0388 73.8789 95.1306 74.0937 94.0808 74.0937C93.0262 74.0937 92.1155 73.8789 91.3489 73.4492C90.5872 73.0195 89.9988 72.4042 89.5838 71.6035C89.1736 70.8027 88.9685 69.8481 88.9685 68.7397C88.9685 67.6362 89.1712 66.6938 89.5764 65.9125C89.9866 65.1264 90.5725 64.5234 91.3343 64.1035C92.1009 63.6835 93.0213 63.4736 94.0955 63.4736C95.1502 63.4736 96.0584 63.6811 96.8201 64.0961C97.5867 64.5112 98.1751 65.1118 98.5852 65.8979C99.0003 66.6791 99.2078 67.6264 99.2078 68.7397ZM97.7796 68.7397C97.7796 67.4555 97.4573 66.4472 96.8128 65.7148C96.1731 64.9824 95.2674 64.6162 94.0955 64.6162C92.9138 64.6162 92.0008 64.9775 91.3562 65.7001C90.7117 66.4228 90.3894 67.436 90.3894 68.7397C90.3894 69.5991 90.5359 70.3461 90.8289 70.9809C91.1219 71.6108 91.5442 72.0991 92.096 72.4457C92.6477 72.7875 93.3094 72.9584 94.0808 72.9584C95.2722 72.9584 96.1853 72.5922 96.8201 71.8598C97.4597 71.1225 97.7796 70.0825 97.7796 68.7397ZM106.737 69.7651V73.9472H105.338V63.6274H112.67V64.77H106.737V68.6079H112.494V69.7651H106.737ZM116.061 63.6274V73.9472H114.662V63.6274H116.061ZM126.769 71.0981C126.769 72.0502 126.395 72.7875 125.648 73.31C124.906 73.8325 123.859 74.0937 122.506 74.0937C119.991 74.0937 118.534 73.2197 118.134 71.4716L119.489 71.2006C119.645 71.8207 119.977 72.2773 120.485 72.5703C120.992 72.8583 121.683 73.0024 122.557 73.0024C123.461 73.0024 124.157 72.8486 124.645 72.541C125.138 72.2285 125.385 71.7719 125.385 71.1713C125.385 70.8344 125.306 70.561 125.15 70.351C124.999 70.1411 124.784 69.9677 124.506 69.831C124.227 69.6943 123.895 69.5795 123.51 69.4868C123.124 69.394 122.697 69.2939 122.228 69.1865C121.686 69.0644 121.232 68.9448 120.866 68.8276C120.504 68.7104 120.206 68.5883 119.972 68.4614C119.738 68.3295 119.537 68.1904 119.371 68.0439C119.127 67.8193 118.939 67.5581 118.807 67.2602C118.68 66.9623 118.617 66.6206 118.617 66.2348C118.617 65.351 118.954 64.6699 119.628 64.1914C120.306 63.7128 121.276 63.4736 122.535 63.4736C123.707 63.4736 124.603 63.6542 125.223 64.0156C125.844 64.372 126.278 64.9824 126.527 65.8466L125.15 66.0883C124.999 65.5415 124.711 65.1459 124.286 64.9018C123.861 64.6528 123.273 64.5283 122.521 64.5283C121.696 64.5283 121.066 64.665 120.631 64.9384C120.197 65.2119 119.979 65.6196 119.979 66.1616C119.979 66.479 120.062 66.7426 120.228 66.9526C120.399 67.1577 120.643 67.331 120.961 67.4726C121.259 67.6142 121.891 67.7924 122.858 68.0073C123.253 68.1 123.644 68.1977 124.03 68.3002C124.415 68.3979 124.779 68.5224 125.121 68.6738C125.321 68.7568 125.512 68.8593 125.692 68.9814C125.878 69.0986 126.039 69.2353 126.176 69.3915C126.361 69.5966 126.505 69.8383 126.608 70.1166C126.715 70.395 126.769 70.7221 126.769 71.0981ZM133.317 72.9438C134.762 72.9438 135.848 72.2285 136.576 70.7978L137.719 71.3691C137.294 72.2578 136.696 72.934 135.924 73.3979C135.158 73.8618 134.266 74.0937 133.251 74.0937C132.206 74.0937 131.307 73.8764 130.555 73.4418C129.803 73.0073 129.225 72.3896 128.82 71.5888C128.419 70.7831 128.219 69.8334 128.219 68.7397C128.219 67.6411 128.419 66.6987 128.82 65.9125C129.22 65.1264 129.796 64.5234 130.548 64.1035C131.3 63.6835 132.199 63.4736 133.243 63.4736C134.342 63.4736 135.26 63.6884 135.997 64.1181C136.735 64.5478 137.277 65.185 137.623 66.0297L136.298 66.4692C136.058 65.8686 135.673 65.4096 135.14 65.0922C134.613 64.7748 133.986 64.6162 133.258 64.6162C132.116 64.6162 131.227 64.9848 130.592 65.7221C129.957 66.4545 129.64 67.4604 129.64 68.7397C129.64 69.5795 129.789 70.3168 130.087 70.9516C130.389 71.5815 130.814 72.0722 131.361 72.4238C131.913 72.7705 132.565 72.9438 133.317 72.9438ZM140.963 70.9296L139.777 73.9472H138.326L142.538 63.6274H144.127L148.273 73.9472H146.845L145.665 70.9296H140.963ZM143.314 64.6821C143.231 64.9555 143.131 65.2607 143.014 65.5976C142.902 65.9296 142.797 66.2226 142.699 66.4765L141.388 69.8383H145.248L143.922 66.4326C143.854 66.2617 143.763 66.02 143.651 65.7075C143.539 65.395 143.427 65.0532 143.314 64.6821ZM156.146 72.8046V73.9472H149.533V63.6274H150.931V72.8046H156.146Z" fill="black"/>
</g>
<path d="M99.8612 63.4551C101.709 68.6187 101.083 70.5022 98.7235 73.1059M90.1909 62.9472C88.2096 67.5248 88.5723 69.7207 91.3286 73.1059M98.1547 73.1059L98.7235 94.9472H91.8974V73.1059" stroke="black"/>
<path d="M97.5393 77.9472H152.039L124.039 143.947C123.937 144.259 123.356 144.459 119.539 144.947C115.913 144.247 113.946 143.467 110.539 141.447" stroke="black"/>
<path d="M98.5393 136.947H94.5393" stroke="black"/>
<path d="M71.5393 139.947L65.0393 143.447L36.0393 77.4472H83.0393M83.0393 77.4472C86.5532 75.7044 86.0167 73.4416 89.5393 72.4472M83.0393 77.4472C82.2865 87.5761 79.8191 93.3752 88.5393 102.947" stroke="black"/>
<path d="M86.0393 75.4472L83.5393 78.9472M91.0393 76.4472C87.7907 79.427 86.9287 82.1795 87.0393 88.9472C88.9692 94.5554 90.8971 97.7288 96.0393 103.447L115.039 103.447L105.039 175.447L96.0393 107.947L88.5393 102.947" stroke="black"/>
<path d="M98.0393 89.9472C99.2049 88.6387 100.021 88.4158 102.039 87.4472C102.039 87.4472 105.392 86.6705 107.539 86.9472C110.196 87.7984 111.403 88.6384 112.539 91.4472C113.079 93.9304 112.582 95.2456 112.039 97.4472C110.152 99.5624 109.539 100.286 107.539 101.447C105.622 102.135 104.384 102.033 102.039 101.447C98.4421 99.5975 97.1286 97.4697 96.0393 94.9472L97.5393 94.9472" stroke="black"/>
<path d="M83.5393 96.4472C81.6452 96.1557 80.6872 96.5106 79.0393 97.4472C77.4447 98.994 76.6921 98.9315 76.0393 100.947C75.7891 102.314 75.8267 103.08 76.0393 104.447C77.3484 106.031 78.2369 106.911 80.5393 108.447L80.5393 110.947L79.0393 110.947C73.8314 107.768 71.1513 106.011 67.0393 102.947C64.5392 99.3546 64.5424 97.0021 66.0393 92.4472C71.3693 86.3061 75.0144 83.7288 81.5393 79.7514M82.0393 79.4472C81.8708 79.5495 81.7041 79.6509 81.5393 79.7514M88.5393 103.447L87.0393 106.947L83.5393 108.447L83.5393 111.447L94.5393 139.947L87.5393 139.947L83.0393 175.447L78.5393 139.947L70.5393 139.947L80.5393 111.447C72.262 110.754 67.5905 110.141 59.0393 107.447C55.4018 104.346 54.5244 102.695 55.5393 99.9472C56.7626 94.4859 58.3482 91.954 62.0393 87.9472C70.4533 82.6396 74.8914 80.4004 81.5393 79.7514" stroke="black"/>
<path d="M77.8596 215.275V218.947H77.1956V213.443H78.1761L79.6409 217.26C79.693 217.413 79.7425 217.579 79.7893 217.756C79.8388 217.93 79.8714 218.057 79.887 218.135C79.9026 218.064 79.9287 217.968 79.9651 217.846C80.0016 217.721 80.038 217.601 80.0745 217.486C80.111 217.372 80.137 217.296 80.1526 217.26L81.5901 213.443H82.5471V218.947H81.8753V215.275C81.8753 215.072 81.8779 214.873 81.8831 214.678C81.8909 214.482 81.9 214.291 81.9104 214.103C81.8453 214.335 81.7841 214.544 81.7268 214.728C81.6721 214.911 81.6188 215.067 81.5667 215.197L80.1448 218.947H79.6214L78.18 215.197L77.8323 214.103C77.8375 214.299 77.8427 214.494 77.8479 214.689C77.8557 214.885 77.8596 215.08 77.8596 215.275ZM84.6878 213.443V218.947H83.9417V213.443H84.6878ZM89.6136 218.338V218.947H86.0862V213.443H86.8323V218.338H89.6136ZM91.305 217.338L90.6721 218.947H89.8987L92.1448 213.443H92.9925L95.2034 218.947H94.4417L93.8128 217.338H91.305ZM92.5589 214.006C92.5146 214.152 92.4612 214.314 92.3987 214.494C92.3388 214.671 92.2828 214.827 92.2307 214.963L91.5315 216.756H93.5901L92.8831 214.939C92.8466 214.848 92.7985 214.719 92.7386 214.553C92.6787 214.386 92.6188 214.204 92.5589 214.006ZM98.3948 218.42C98.7542 218.42 99.0888 218.365 99.3987 218.256C99.7112 218.146 99.9638 217.998 100.157 217.81V216.818H98.512V216.193H100.844V218.092C100.552 218.389 100.194 218.619 99.7698 218.783C99.3479 218.945 98.8896 219.025 98.3948 219.025C97.8219 219.025 97.3284 218.909 96.9143 218.678C96.5003 218.446 96.1813 218.116 95.9573 217.689C95.7333 217.26 95.6214 216.753 95.6214 216.17C95.6214 215.277 95.861 214.585 96.3401 214.096C96.8193 213.606 97.4925 213.361 98.3596 213.361C98.969 213.361 99.4638 213.464 99.844 213.67C100.224 213.876 100.517 214.205 100.723 214.658L100.012 214.869C99.8557 214.557 99.6396 214.329 99.3636 214.185C99.0901 214.042 98.749 213.971 98.3401 213.971C97.7047 213.971 97.219 214.163 96.8831 214.549C96.5471 214.932 96.3792 215.472 96.3792 216.17C96.3792 216.865 96.5576 217.415 96.9143 217.818C97.2711 218.219 97.7646 218.42 98.3948 218.42ZM102.848 216.662V218.947H102.102V213.443H104.692C105.311 213.443 105.789 213.583 106.125 213.861C106.464 214.137 106.633 214.523 106.633 215.018C106.633 215.426 106.513 215.77 106.274 216.049C106.037 216.327 105.709 216.503 105.289 216.576L106.852 218.947H105.992L104.563 216.662H102.848ZM105.883 215.025C105.883 214.705 105.774 214.462 105.555 214.295C105.339 214.126 105.026 214.041 104.617 214.041H102.848V216.072H104.649C105.042 216.072 105.345 215.981 105.559 215.799C105.775 215.614 105.883 215.356 105.883 215.025ZM113.067 216.17C113.067 216.758 112.955 217.266 112.731 217.693C112.509 218.12 112.194 218.45 111.785 218.682C111.377 218.911 110.892 219.025 110.332 219.025C109.77 219.025 109.284 218.911 108.875 218.682C108.469 218.452 108.155 218.124 107.934 217.697C107.715 217.27 107.606 216.761 107.606 216.17C107.606 215.581 107.714 215.079 107.93 214.662C108.149 214.243 108.461 213.921 108.867 213.697C109.276 213.473 109.767 213.361 110.34 213.361C110.903 213.361 111.387 213.472 111.793 213.693C112.202 213.915 112.516 214.235 112.735 214.654C112.956 215.071 113.067 215.576 113.067 216.17ZM112.305 216.17C112.305 215.485 112.133 214.947 111.789 214.557C111.448 214.166 110.965 213.971 110.34 213.971C109.71 213.971 109.223 214.163 108.879 214.549C108.535 214.934 108.364 215.475 108.364 216.17C108.364 216.628 108.442 217.027 108.598 217.365C108.754 217.701 108.979 217.962 109.274 218.146C109.568 218.329 109.921 218.42 110.332 218.42C110.968 218.42 111.455 218.225 111.793 217.834C112.134 217.441 112.305 216.886 112.305 216.17Z" fill="black"/>
<path d="M92.5833 224.499V224.947H89.9964V224.499H91.0481V221.323L90.1165 221.988V221.49L91.0921 220.819H91.5784V224.499H92.5833ZM95.9319 222.8C95.9319 223.509 95.802 224.054 95.5423 224.435C95.2845 224.815 94.9163 225.006 94.4378 225.006C94.1155 225.006 93.8567 224.938 93.6614 224.804C93.468 224.667 93.3294 224.447 93.2454 224.144L93.7493 224.065C93.8548 224.409 94.0872 224.581 94.4466 224.581C94.7493 224.581 94.9837 224.44 95.1497 224.159C95.3157 223.878 95.4026 223.477 95.4104 222.955C95.3323 223.131 95.1985 223.272 95.0091 223.38C94.8196 223.485 94.6116 223.538 94.385 223.538C94.1389 223.538 93.9241 223.48 93.7405 223.365C93.5569 223.25 93.4143 223.088 93.3128 222.879C93.2112 222.67 93.1604 222.426 93.1604 222.146C93.1604 221.715 93.2815 221.376 93.5237 221.13C93.7659 220.882 94.1028 220.758 94.5345 220.758C94.9934 220.758 95.3411 220.928 95.5774 221.268C95.8138 221.607 95.9319 222.118 95.9319 222.8ZM95.3577 222.29C95.3577 221.958 95.2815 221.691 95.1292 221.49C94.9768 221.287 94.7727 221.185 94.5169 221.185C94.263 221.185 94.0628 221.272 93.9163 221.446C93.7698 221.618 93.6966 221.852 93.6966 222.146C93.6966 222.447 93.7698 222.685 93.9163 222.861C94.0628 223.035 94.261 223.122 94.511 223.122C94.6634 223.122 94.803 223.087 94.93 223.017C95.0589 222.946 95.1624 222.849 95.2405 222.724C95.3186 222.597 95.3577 222.452 95.3577 222.29ZM99.2923 223.597C99.2923 224.032 99.1741 224.376 98.9378 224.628C98.7014 224.88 98.3753 225.006 97.9593 225.006C97.4944 225.006 97.1389 224.833 96.8929 224.487C96.6468 224.142 96.5237 223.639 96.5237 222.978C96.5237 222.264 96.6516 221.715 96.9075 221.332C97.1634 220.949 97.5276 220.758 98.0003 220.758C98.3128 220.758 98.5667 220.828 98.762 220.969C98.9593 221.109 99.0979 221.319 99.178 221.599L98.6741 221.689C98.5725 221.353 98.346 221.185 97.9944 221.185C97.6936 221.185 97.4602 221.326 97.2942 221.607C97.1302 221.887 97.0481 222.292 97.0481 222.823C97.1438 222.645 97.2786 222.511 97.4524 222.419C97.6263 222.325 97.8255 222.278 98.0501 222.278C98.4309 222.278 98.7327 222.397 98.9554 222.636C99.18 222.874 99.2923 223.194 99.2923 223.597ZM98.7561 223.62C98.7561 223.321 98.6829 223.091 98.5364 222.929C98.3899 222.767 98.1858 222.685 97.9241 222.685C97.678 222.685 97.4788 222.758 97.3264 222.902C97.1761 223.045 97.1009 223.242 97.1009 223.494C97.1009 223.705 97.137 223.893 97.2093 224.057C97.2815 224.221 97.3802 224.35 97.5052 224.443C97.6321 224.535 97.7776 224.581 97.9417 224.581C98.1956 224.581 98.3948 224.496 98.5393 224.326C98.6839 224.154 98.7561 223.919 98.7561 223.62ZM102.612 222.8C102.612 223.509 102.482 224.054 102.222 224.435C101.964 224.815 101.596 225.006 101.117 225.006C100.795 225.006 100.536 224.938 100.341 224.804C100.148 224.667 100.009 224.447 99.9251 224.144L100.429 224.065C100.534 224.409 100.767 224.581 101.126 224.581C101.429 224.581 101.663 224.44 101.829 224.159C101.995 223.878 102.082 223.477 102.09 222.955C102.012 223.131 101.878 223.272 101.689 223.38C101.499 223.485 101.291 223.538 101.065 223.538C100.819 223.538 100.604 223.48 100.42 223.365C100.237 223.25 100.094 223.088 99.9925 222.879C99.8909 222.67 99.8401 222.426 99.8401 222.146C99.8401 221.715 99.9612 221.376 100.203 221.13C100.446 220.882 100.783 220.758 101.214 220.758C101.673 220.758 102.021 220.928 102.257 221.268C102.493 221.607 102.612 222.118 102.612 222.8ZM102.037 222.29C102.037 221.958 101.961 221.691 101.809 221.49C101.657 221.287 101.452 221.185 101.197 221.185C100.943 221.185 100.742 221.272 100.596 221.446C100.449 221.618 100.376 221.852 100.376 222.146C100.376 222.447 100.449 222.685 100.596 222.861C100.742 223.035 100.941 223.122 101.191 223.122C101.343 223.122 101.483 223.087 101.61 223.017C101.739 222.946 101.842 222.849 101.92 222.724C101.998 222.597 102.037 222.452 102.037 222.29Z" fill="black"/>
<path d="M90.0393 39.9472H100.539M82.5393 183.947H106.539L95.0393 210.947L82.5393 183.947Z" stroke="black"/>
<path d="M100.539 62.4472L100.039 63.9472" stroke="black"/>
<path d="M84.0393 35.4472H106.539" stroke="black"/>
<path d="M90.0393 53.9472V62.4472" stroke="black"/>
<path d="M84.0393 24.4472H106.539" stroke="black"/>
<path d="M100.539 53.9472V62.9472" stroke="black"/>
<path d="M83.5393 77.4472C83.9393 77.8472 84.0393 78.2805 84.0393 78.4472L86.5393 74.4472L83.0393 79.9472" stroke="black"/>
<path d="M104.539 0.947212C105.739 0.947212 106.706 0.613879 107.039 0.447212" stroke="black"/>
<defs>
<filter id="filter0_d_5_104" x="28.3011" y="63.4736" width="131.845" height="18.6201" filterUnits="userSpaceOnUse" color-interpolation-filters="sRGB">
<feFlood flood-opacity="0" result="BackgroundImageFix"/>
<feColorMatrix in="SourceAlpha" type="matrix" values="0 0 0 0 0 0 0 0 0 0 0 0 0 0 0 0 0 0 127 0" result="hardAlpha"/>
<feOffset dy="4"/>
<feGaussianBlur stdDeviation="2"/>
<feComposite in2="hardAlpha" operator="out"/>
<feColorMatrix type="matrix" values="0 0 0 0 0 0 0 0 0 0 0 0 0 0 0 0 0 0 0.25 0"/>
<feBlend mode="normal" in2="BackgroundImageFix" result="effect1_dropShadow_5_104"/>
<feBlend mode="normal" in="SourceGraphic" in2="effect1_dropShadow_5_104" result="shape"/>
</filter>
</defs>
</svg>
